<?xml version="1.0" encoding="UTF-8"?>
<svg id="Layer_2" data-name="Layer 2" xmlns="http://www.w3.org/2000/svg" viewBox="0 0 826.49 260.22">
  <defs>
    <style>
      .cls-1 {
        fill: #001642;
      }

      .cls-1, .cls-2 {
        stroke-width: 0px;
      }

      .cls-2 {
        fill: #ffb30c;
      }
    </style>
  </defs>
  <g id="Layer_5" data-name="Layer 5">
    <g>
      <rect class="cls-1" x="11.37" y="87.28" width="47.7" height="131.36" rx="4.17" ry="4.17"/>
      <path class="cls-1" d="M75.7,130.08c0-20-.16-32.15-.36-38.99-.06-2.09,1.62-3.81,3.71-3.81h38.05c1.86,0,3.42,1.36,3.68,3.2,0,.06.02.13.03.19.39,2.93,3.85,4.19,6.13,2.29,5.71-4.75,12.32-7.64,21.67-7.64,13.03,0,19.72,4.79,23.52,9.71,1.38,1.79,3.92,1.98,5.58.46,5.88-5.41,14.85-10.17,27.9-10.17,22.99,0,32.29,17.37,32.29,39.38v90.22c0,2.05-1.66,3.71-3.71,3.71h-39.06c-2.05,0-3.71-1.66-3.71-3.71v-86.31c0-4.65-.98-8.56-5.14-8.56s-6.12,3.18-6.12,10.52v84.35c0,2.05-1.66,3.71-3.71,3.71h-39.3c-2.05,0-3.71-1.66-3.71-3.71v-86.56c0-6.6-2.69-8.32-5.38-8.32-3.67,0-5.63,3.18-5.63,10.76v84.11c0,2.05-1.66,3.71-3.71,3.71h-39.3c-2.05,0-3.71-1.66-3.71-3.71v-84.84Z"/>
      <path class="cls-1" d="M302.2,218.73v37.56c0,2.17-1.76,3.93-3.93,3.93h-39.85c-2.17,0-3.93-1.76-3.93-3.93V125.19c0-14.6-.17-26.09-.37-33.89-.06-2.21,1.72-4.03,3.93-4.03h37.95c2,0,3.68,1.5,3.9,3.49,0,.04,0,.08.01.12.37,3.26,4.26,4.58,6.66,2.34,4.64-4.32,11.51-7.91,22.28-7.91,21.53,0,34.74,15.66,34.74,66.05s-13.21,69.47-38.65,69.47c-5.44,0-11.51-1.46-16.35-5.15-2.63-2-6.4-.26-6.4,3.04ZM314.92,151.86c0-28.86-.73-31.8-6.11-31.8s-6.61,3.18-6.61,32.53,1.47,33.51,5.87,33.51c4.89,0,6.85-3.18,6.85-34.25Z"/>
      <rect class="cls-1" x="377.29" y="87.28" width="47.7" height="131.36" rx="5.23" ry="5.23"/>
      <path class="cls-1" d="M544.85,181.7c0,11.83.51,24.68.82,32.74.09,2.31-1.76,4.2-4.07,4.2h-35.5c-1.87,0-3.55-1.27-3.95-3.1,0-.04-.02-.08-.03-.12-.65-3.03-4.19-4.26-6.61-2.32-7.5,6.03-15.81,7.74-23.81,7.74-19.81,0-34.49-13.94-34.49-42.81,0-30.82,20.06-42.56,49.9-42.56h6.94c2.25,0,4.07-1.82,4.07-4.07v-7.19c0-7.09-1.47-9.3-5.87-9.3-3.81,0-5.42,2.01-5.79,9.52-.11,2.19-1.87,3.93-4.06,3.93h-36.04c-2.38,0-4.24-2.05-4.07-4.43,1.9-26.73,17.32-38.63,51.91-38.63s50.64,11.25,50.64,41.58v54.79ZM498.12,160.66h-3.91c-8.32,0-10.03,6.36-10.03,13.7,0,8.56,2.94,11.25,6.85,11.25,5.14,0,7.09-4.4,7.09-13.94v-11.01Z"/>
      <path class="cls-1" d="M561.71,129.1c0-22.45,0-32.02-.14-38.26-.04-1.96,1.53-3.57,3.49-3.57h39.18c1.77,0,3.25,1.32,3.47,3.07,0,.04,0,.07.01.11.33,2.67,3.44,4.04,5.55,2.38,5.38-4.24,13.4-7.51,23.77-7.51,22.75,0,32.29,14.19,32.29,37.43v92.4c0,1.93-1.56,3.49-3.49,3.49h-40.71c-1.93,0-3.49-1.56-3.49-3.49v-86.04c0-6.12-1.47-9.05-5.87-9.05-4.65,0-6.36,2.94-6.36,10.52v84.57c0,1.93-1.56,3.49-3.49,3.49h-40.71c-1.93,0-3.49-1.56-3.49-3.49v-86.04Z"/>
      <path class="cls-1" d="M682.43,87.28h7.81c1.56,0,2.82-1.26,2.82-2.82v-22.98c0-1.56,1.26-2.82,2.82-2.82h40.83c1.56,0,2.82,1.26,2.82,2.82v22.98c0,1.56,1.26,2.82,2.82,2.82h9.52c1.56,0,2.82,1.26,2.82,2.82v30.56c0,1.56-1.26,2.82-2.82,2.82h-9.52c-1.56,0-2.82,1.26-2.82,2.82v49.53c0,6.36,2.2,8.81,8.81,8.81,1.22,0,2.69,0,4.4-.25v31.1c0,1.28-.84,2.43-2.08,2.73-7.8,1.92-17.49,2.12-22.87,2.12-29.11,0-35.72-11.74-35.72-35.71v-58.33c0-1.56-1.26-2.82-2.82-2.82h-6.83c-1.56,0-2.82-1.26-2.82-2.82v-30.56c0-1.56,1.26-2.82,2.82-2.82Z"/>
      <rect class="cls-1" x="767.41" y="87.28" width="47.7" height="131.36" rx="3.38" ry="3.38"/>
      <rect class="cls-2" x="0" y="0" width="70.45" height="70.45" rx="35.23" ry="35.23"/>
      <rect class="cls-2" x="756.04" y="0" width="70.45" height="70.45" rx="35.23" ry="35.23"/>
    </g>
  </g>
</svg>